<svg xmlns="http://www.w3.org/2000/svg" width="112" height="26" viewBox="0 0 112 26"><defs><clipPath><path data-name="\uC0AC\uAC01형 4471" transform="translate(-1 -3.5)" d="M0 0h112v26H0z" fill="none"></path></clipPath></defs><g data-name="\uADF8\uB8F9 11748" transform="translate(1 3.5)" clip-path="url(#paramount-logo_svg__a)" fill="#fff" fill-rule="evenodd"><path data-name="패\uC2A4 4847" d="M27.835 3.198c0-4.4-4.659-6.512-10.2-6.512C11.72-3.314 6.3-.703 4.307 3.374a7.7 7.7 0 00-.85 3.52 5.29 5.29 0 00.85 2.962 5.227 5.227 0 004.629 2.053c2.725 0 4.923-1.5 4.923-4.136a.726.726 0 00-.82-.733c-.7 0-.879.5-.85.733a3.286 3.286 0 01-3.311 3.725c-2.432 0-3.457-2.083-3.457-4.312 0-4.546 3.428-7.538 6.973-8.858a14.368 14.368 0 015.215-.909c4.043 0 7.325 1.555 7.325 5.69a6.914 6.914 0 01-6.388 6.688l.147-.469a24.671 24.671 0 013.018-7.392 3.188 3.188 0 01.381-.528l-.2-.235a5.9 5.9 0 00-.879.616c-6.685 5.197-6.89 19.858-15.768 19.858a4.567 4.567 0 01-.908-.059 3.108 3.108 0 01-2.842-3.285c0-.323.117-.792.117-1.056a.9.9 0 00-.879-.939H.644c-.791 0-1.113.645-1.143 1.525-.059 2.611 1.846 4.106 4.805 4.4.322 0 .645.029 1 .029 6.944 0 11.193-5.25 13.01-11.615a16.978 16.978 0 002.7-.587c3.223-.88 6.827-3.05 6.827-6.863"></path><path data-name="패\uC2A4 4848" d="M66.753 9.73a15.989 15.989 0 01-2.607 6.421c-.527.792-1 1-1.406 1-.586 0-.732-.469-.645-1.143a15.666 15.666 0 012.49-5.952c.644-.88 1.054-1.232 1.553-1.232.469 0 .615.41.615.909m-27.008 6.744c-.351 0-.615-.117-.615-.586 0-1.2 1-3.313 2.255-5.043a4.385 4.385 0 013.222-2.052l-1.552 3.46c-1.172 2.668-2.373 4.222-3.31 4.222m-15.232 0c-.351 0-.586-.117-.586-.586a11.517 11.517 0 012.256-5.043 4.385 4.385 0 013.222-2.052l-1.523 3.46c-1.172 2.609-2.431 4.222-3.369 4.222M93.911 4.716h-2.46l-.527 1.29-.967 2.17h-1.146l-.351.733h1.2l-1.435 3.137c-1.025 2.228-2.607 4.4-3.515 4.4-.205 0-.322-.088-.322-.293a2.832 2.832 0 01.264-.938c.293-.674.761-1.642 1.113-2.375a11.821 11.821 0 001.318-3.43 1.369 1.369 0 00-1.496-1.444 4.361 4.361 0 00-3.076 1.671l.615-1.466h-2.315l-1.875 4.251c-.732 1.525-2.255 4.017-3.222 4.017-.205 0-.293-.117-.293-.323a1.776 1.776 0 01.147-.528c.088-.176 1.2-2.815 1.2-2.815l2.021-4.662h-2.458l-1.992 4.555c-.586 1.407-2.138 3.782-3.134 3.782a.306.306 0 01-.351-.293v-.059a3.164 3.164 0 01.322-1.026l1.025-2.287 2.138-4.662h-2.46l-.469 1.055a2.4 2.4 0 01-1.963 1.554c-.469 0-.7-.176-.791-.352a2.423 2.423 0 00-2.607-2.4 5.238 5.238 0 00-4.423 2.668 11.882 11.882 0 00-1.464 3.225c-.879 1.437-1.787 2.551-2.519 2.551a.281.281 0 01-.322-.322 3.619 3.619 0 01.322-1l1.611-3.43a7 7 0 00.762-2.433 1.241 1.241 0 00-1.348-1.271 4.91 4.91 0 00-3.427 1.759 1.626 1.626 0 00.059-.528 1.1 1.1 0 00-1.26-1.231 4.347 4.347 0 00-3.134 1.759l.644-1.583h-2.226l-1.9 4.281c-.908 1.994-2.343 3.987-3.164 3.987-.176 0-.293-.088-.293-.322a7.536 7.536 0 01.586-1.73l2.519-5.688c.176-.44-1.025-.7-2.549-.7a7.083 7.083 0 00-4.364 1.788 3.9 3.9 0 01-1.758 1.026c-.146 0-.2-.088-.2-.176 0-.352.82-1.319.82-2.082 0-.352-.176-.557-.645-.557a4.356 4.356 0 00-2.724 1.73l.645-1.554h-2.2l-1.875 4.281c-.908 1.994-2.4 4.1-3.193 4.1-.205 0-.322-.117-.322-.352a6.828 6.828 0 01.645-1.818l2.49-5.688c.176-.44-1.025-.7-2.548-.7a7.451 7.451 0 00-5.595 3.108 9.285 9.285 0 00-2.2 4.955 1.691 1.691 0 001.812 1.908 4.283 4.283 0 003.1-1.906 2.969 2.969 0 00-.088.5c0 .821.322 1.407 1.318 1.407a4.361 4.361 0 002.959-1.906l-.732 1.73h2.373l2.343-5.307c.762-1.73 1.64-2.609 1.875-2.609.088 0 .146.029.146.088 0 .176-.381.674-.381 1.114s.234.792.908.792a3.226 3.226 0 001.582-.557 8.784 8.784 0 00-2.021 4.75 1.665 1.665 0 001.816 1.906c1.289 0 2.49-1.231 3.134-2.052a3.98 3.98 0 00-.059.586 1.345 1.345 0 001.377 1.466c1.025 0 1.816-.645 2.841-1.876l-.762 1.7h2.46l2.226-5.072c.967-2.2 2.314-3.372 2.959-3.372.147-.029.293.117.322.264v.059a3.015 3.015 0 01-.205.733l-3.222 7.418h2.531l2.255-5.16c1-2.228 2.08-3.313 2.871-3.313.264 0 .351.117.351.381a2.416 2.416 0 01-.2.821l-2.2 4.691a4.028 4.028 0 00-.381 1.407c0 .733.381 1.349 1.494 1.349 1.406 0 2.49-1.085 3.72-2.668v.322a2.411 2.411 0 002.695 2.4c2.255 0 4.042-1.525 5.155-3.987a9.268 9.268 0 00.791-2.756 1.468 1.468 0 00.791.147 1.885 1.885 0 001.055-.264l-.381.85c-.439.938-.937 1.964-1.318 2.844a4.554 4.554 0 00-.44 1.642 1.393 1.393 0 001.494 1.525c1 0 2.343-.938 3.339-2.258a3.714 3.714 0 00-.088.821c0 .733.234 1.437 1.23 1.437 1.2 0 2.109-.88 2.988-1.935l-.732 1.7h2.46l1.963-4.486c1.113-2.522 2.226-4.046 3.281-4.046a.348.348 0 01.352.293v.088a12.6 12.6 0 01-1.172 2.727c-.5 1.055-.879 1.876-1.142 2.521a4.168 4.168 0 00-.439 1.671 1.263 1.263 0 001.377 1.378c1.435 0 2.871-1.378 3.632-2.433a4.81 4.81 0 00-.264 1.554 1.92 1.92 0 002.05 2.14 3.887 3.887 0 002.226-.733 10.493 10.493 0 002.314-2.521l-.439-.411a9.608 9.608 0 01-1.9 2.111 2.063 2.063 0 01-1.259.5c-.527 0-.85-.264-.85-.909a8.468 8.468 0 01.791-2.727s.674-1.524 1.318-2.961c.527-1.231 1.055-2.4 1.142-2.639h1.611l.322-.733h-1.582z"></path><path data-name="패\uC2A4 4849" d="M104.709 8.191l2.232-5.2h-2.649l-2.262 5.2h-5.6l-.952 2.171h5.625l-2.232 5.145h2.649l2.262-5.145h5.625l.923-2.171z"></path></g></svg>