<svg width="24" height="24" viewBox="0 0 24 24" fill="none" xmlns="http://www.w3.org/2000/svg">
<rect width="24" height="24" rx="2" fill="#CC1030"/>
<path d="M9.23616 17.8614H7.20241V8.03338H6.04688V6.15404H9.23616V17.8614Z" fill="white"/>
<path d="M14.7022 12.0077C15.072 12.0077 15.3647 11.9101 15.5804 11.715C15.8064 11.5096 15.9194 11.2221 15.9194 10.8524V9.11168C15.9194 8.72144 15.8115 8.41848 15.5958 8.20282C15.3904 7.98716 15.0925 7.87933 14.7022 7.87933C14.3016 7.87933 13.9986 7.98716 13.7932 8.20282C13.5878 8.41848 13.485 8.72144 13.485 9.11168V10.6829C13.485 11.1142 13.5878 11.4429 13.7932 11.6688C13.9986 11.8947 14.3016 12.0077 14.7022 12.0077ZM14.4865 13.887C13.5005 13.887 12.7455 13.6252 12.2217 13.1014C11.6978 12.5777 11.4359 11.8537 11.4359 10.9294V8.97304C11.4359 8.03851 11.7132 7.30937 12.2679 6.78562C12.8328 6.26187 13.6443 6 14.7022 6C15.7499 6 16.5511 6.26187 17.1057 6.78562C17.6707 7.30937 17.9531 8.03851 17.9531 8.97304V14.9807C17.9531 15.9564 17.6604 16.7009 17.0749 17.2144C16.4997 17.7381 15.7088 18 14.7022 18C13.7162 18 12.9458 17.7484 12.3911 17.2452C11.8365 16.742 11.5437 16.0128 11.5129 15.0578H13.5313C13.5518 15.448 13.6545 15.7253 13.8394 15.8896C14.0243 16.0539 14.3119 16.1361 14.7022 16.1361C15.0925 16.1361 15.3904 16.0282 15.5958 15.8126C15.8115 15.5969 15.9194 15.2734 15.9194 14.8421V13.3171C15.7653 13.5019 15.5547 13.6457 15.2877 13.7484C15.0309 13.8408 14.7638 13.887 14.4865 13.887Z" fill="white"/>
</svg>
