<svg width="24" height="24" viewBox="0 0 24 24" fill="none" xmlns="http://www.w3.org/2000/svg">
<rect width="24" height="24" rx="2" fill="#333333"/>
<path d="M9.16543 18H7.10828V8.05714H5.93945V6.15584H9.16543V18Z" fill="white"/>
<path d="M11.4684 18V15.2104C11.4684 14.5766 11.5619 14.0623 11.7489 13.6675C11.9463 13.2727 12.2788 12.9091 12.7463 12.5766L15.2242 10.8C15.4736 10.613 15.6606 10.3948 15.7853 10.1455C15.9203 9.8961 15.9879 9.61558 15.9879 9.3039C15.9879 8.84675 15.884 8.4987 15.6762 8.25974C15.4788 8.02078 15.1723 7.9013 14.7567 7.9013C14.3307 7.9013 14.019 8.02597 13.8216 8.27532C13.6242 8.52467 13.5255 8.88831 13.5255 9.36623H11.4684C11.4684 8.19221 11.7645 7.34026 12.3567 6.81039C12.9593 6.27013 13.7593 6 14.7567 6C15.7437 6 16.5385 6.26494 17.1411 6.79481C17.7541 7.32468 18.0606 8.16104 18.0606 9.3039C18.0606 10.0208 17.9307 10.6338 17.671 11.1429C17.4216 11.6416 17.0476 12.0623 16.5489 12.4052L14.1801 14.0416C13.9515 14.1974 13.7801 14.374 13.6658 14.5714C13.5619 14.7688 13.5099 15.013 13.5099 15.3039V16.1143H18.0606V18H11.4684Z" fill="white"/>
</svg>
