<svg width="24" height="24" viewBox="0 0 24 24" fill="none" xmlns="http://www.w3.org/2000/svg">
<rect width="24" height="24" rx="2" fill="#333333"/>
<path d="M9.23017 17.8596H7.17035V7.90377H6V6H9.23017V17.8596Z" fill="white"/>
<path d="M13.674 12.2263H11.7546V6H17.7V7.90377H13.8144V10.2445C14.0017 10.0884 14.2305 9.96359 14.501 9.86996C14.7819 9.77633 15.0732 9.72952 15.3749 9.72952C16.2383 9.72952 16.8885 9.95839 17.3255 10.4161C17.7624 10.8635 17.9809 11.4824 17.9809 12.2731V14.8635C17.9809 15.8309 17.7104 16.5956 17.1694 17.1573C16.6389 17.7191 15.8378 18 14.7663 18C13.674 18 12.8365 17.7139 12.2539 17.1417C11.6714 16.5696 11.3801 15.7373 11.3801 14.645H13.4555C13.4555 15.186 13.5699 15.5657 13.7988 15.7841C14.0381 16.0026 14.3606 16.1118 14.7663 16.1118C15.1408 16.1118 15.4269 16.0182 15.6246 15.8309C15.8222 15.6333 15.921 15.3108 15.921 14.8635V12.6476C15.921 12.2939 15.8378 12.039 15.6714 11.883C15.5049 11.7165 15.2604 11.6333 14.9379 11.6333C14.6779 11.6333 14.4386 11.6905 14.2201 11.8049C14.0121 11.9194 13.83 12.0598 13.674 12.2263Z" fill="white"/>
</svg>
