<svg width="24" height="24" viewBox="0 0 24 24" fill="none" xmlns="http://www.w3.org/2000/svg">
<path d="M21.2945 24H2.70554C1.21032 24 0 22.7897 0 21.2945V2.70555C0.00191205 1.21224 1.21224 0 2.70554 0H21.2945C22.7878 0 24 1.21224 24 2.70555V21.2945C24 22.7897 22.7897 24 21.2945 24Z" fill="#D92B35"/>
<path d="M5.08587 20.2604V8.33113H3.76465L5.47784 3.72119H8.7876V20.2604H5.08587Z" fill="white"/>
<path d="M20.0019 13.4841C19.9732 13.2833 19.9235 13.1093 19.8509 12.964C19.7782 12.8206 19.6807 12.6963 19.5583 12.595C19.436 12.4937 19.2811 12.3942 19.0937 12.2929L17.9904 11.7728L19.0937 11.1877C19.4245 10.987 19.6597 10.7633 19.7973 10.5166C19.935 10.2719 20.0019 9.90284 20.0019 9.41335V4.09022C20.0019 3.88563 19.8356 3.72119 19.6329 3.72119H10.436C10.2314 3.72119 10.0669 3.88754 10.0669 4.09022V9.41335C10.0669 9.88754 10.1377 10.2547 10.2734 10.5051C10.4111 10.7594 10.6463 10.9851 10.9771 11.1877L12.0803 11.7728L10.9771 12.2929C10.6004 12.4937 10.3537 12.7327 10.2295 13.0061C10.1071 13.2814 10.0459 13.6849 10.0459 14.2202V19.8895C10.0459 20.094 10.2123 20.2585 10.4149 20.2585H19.6769C19.8815 20.2585 20.0459 20.0921 20.0459 19.8895V14.2202C20.0459 13.9315 20.0306 13.6868 20.0019 13.4841ZM16.3652 16.8378C16.3652 17.0424 16.1989 17.2069 15.9962 17.2069H14.0956C13.891 17.2069 13.7266 17.0405 13.7266 16.8378V13.5281C13.7266 13.3235 13.8929 13.1591 14.0956 13.1591H15.9962C16.2008 13.1591 16.3652 13.3254 16.3652 13.5281V16.8378ZM16.3652 10.0271C16.3652 10.2317 16.1989 10.3961 15.9962 10.3961H14.0956C13.891 10.3961 13.7266 10.2298 13.7266 10.0271V7.13228C13.7266 6.92769 13.8929 6.76326 14.0956 6.76326H15.9962C16.2008 6.76326 16.3652 6.9296 16.3652 7.13228V10.0271Z" fill="white"/>
</svg>
